<?xml version="1.0" encoding="UTF-8"?>
<svg id="Ebene_1" xmlns="http://www.w3.org/2000/svg" viewBox="0 0 934.51 672.29">
    <defs>
        <style>
            .cls-1 {
            fill: none;
            stroke: #60412b;
            stroke-miterlimit: 10;
            stroke-width: 2px;
            }

            .cls-2 {
            fill: #a2a643;
            }
        </style>
    </defs>
    <path class="cls-1" d="M144.7,306.61c2.64-29.22,10.54-75.61,36.64-125.57C237.56,73.43,334.75,32.5,354.36,24.68c92.2-36.77,173.33-21.38,200.56-15,24.71,5.79,121.11,31.34,191.41,124.79,52.4,69.66,63.22,141.05,66.09,172.14"/>
    <path class="cls-1" d="M152.61,414.5c6.57,26.51,34.8,127.1,134.16,196.54,83.61,58.43,168.74,60.67,197.13,60.21,24.82-.4,128.01-4.84,217.91-85.15,72.17-64.47,95.37-141.74,102.69-171.59"/>
    <g>
        <path class="cls-1" d="M412.68,167.63c2.53,82.56,37.62,138.64,64.46,139,26.85.35,63.44-54.82,68.09-137.38,16.38-3.27,24.87-19.54,20.55-31.43-3.43-9.45-14.92-16.05-27.4-14.1.5-8.64-4.35-16.69-12.09-20.14-8.26-3.69-18.17-1.42-24.17,5.64-.76-12.56-11.4-22.16-23.37-21.76-11.13.38-20.67,9.33-21.76,20.95-6.03-8.14-16.89-11.14-26.19-7.25-9.17,3.83-14.67,13.47-13.3,23.37-11.43-1.64-22.15,1.97-25.78,8.86-4.94,9.36,1.87,27.28,20.95,34.25Z"/>
        <path class="cls-1" d="M407.53,165.37c-11.81-10.18-36.85,6.39-45.32,15.85-9.85,11.01-15.16,25.96-14.47,40.71.24,5.08,1.33,10.47,4.93,14.07,3.52,3.51,8.8,4.64,13.77,4.57,12.65-.18,24.61-7.19,32.54-17.06,7.92-9.86,12.12-22.31,13.86-34.84.7-5.08,1.01-10.35-.47-15.26-1.1-3.63-2.76-6.26-4.84-8.05Z"/>
        <path class="cls-1" d="M549.57,168.98c11.81-10.18,36.85,6.39,45.32,15.85,9.85,11.01,15.16,25.96,14.47,40.71-.24,5.08-1.33,10.47-4.93,14.07-3.52,3.51-8.8,4.64-13.77,4.57-12.65-.18-24.61-7.19-32.54-17.06s-12.12-22.31-13.86-34.84c-.7-5.08-1.01-10.35.47-15.26,1.1-3.63,2.76-6.26,4.84-8.05Z"/>
    </g>
    <g>
        <path class="cls-2" d="M63.34,348.52c16.47,3.57,26.66,12.74,26.66,29.38,0,25.13-20.21,33.11-48.4,33.11-8.83,0-22.25-.85-28.19-2.04-.68-58.25-.51-106.13-.85-106.13-6.45,2.04-10.53,4.75-10.53,4.75-.17,0-.68-.68-.68-1.53,0-4.42,15.45-15.96,43.64-15.96,24.79,0,39.06,11.89,39.23,29.38,0,15.62-10.02,25.13-20.89,29.04ZM44.49,294.51c-6.62,0-11.89,1.53-11.89,1.53-.17,20.55-.17,34.98-.17,49.59h14.09c8.15,0,18-9.85,18-27-.17-11.38-3.06-24.11-20.04-24.11ZM32.77,405.57c3.74.85,6.96,1.19,10.19,1.19,18.85,0,27.17-14.43,27.17-28.36,0-15.62-9.51-27.34-25.81-27.34h-11.89c0,34.47.17,51.62.34,54.51Z"/>
        <path class="cls-2" d="M124.14,380.78c0,12.57,1.53,20.04,4.75,21.4,2.89-2.04,5.43-4.25,8.15-7.64.17.17.68.68.68,2.38,0,5.6-4.42,14.09-15.28,14.09-13.75,0-15.62-13.08-15.62-22.25,0-22.59,1.02-42.79,1.53-54.51-1.7,0-7.98,2.55-11.04,4.92-.34,0-.68-.51-.68-1.53,0-9.34,22.25-13.59,25.81-13.59,2.55,0,4.58,1.53,4.58,3.91,0,1.19-1.02,7.13-2.38,36.85,0,0-.51,9.51-.51,15.96ZM128.38,302.5c0,7.3-4.08,12.4-11.04,12.4-5.6,0-9.51-5.09-9.51-10.53,0-7.13,4.08-12.4,10.87-12.4,5.6,0,9.68,4.75,9.68,10.53Z"/>
        <path class="cls-2" d="M144.01,368.04c0-30.91,19.7-43.98,38.21-43.98s38.21,13.59,38.21,43.98-19.87,41.94-38.21,41.94-38.21-10.19-38.21-41.94ZM182.21,406.08c10.36,0,18-15.45,18-38.04s-7.3-40.08-18-40.08-17.83,17.66-17.83,40.08,7.3,38.04,17.83,38.04Z"/>
        <path class="cls-2" d="M260.33,411.01c-14.09,0-25.98-2.72-25.98-13.08v-46.19c0-4.92-.17-19.7-.17-33.11,0-10.36.17-20.04.34-25.3-1.7,0-7.64,2.55-10.36,4.92-.34,0-.85-.51-.85-1.53,0-9.17,23.09-14.09,28.87-14.09,2.55,0,4.25,2.04,4.08,4.42l-4.25,72.17c4.25-19.19,15.28-35.15,27-35.15,15.96,0,25.13,14.26,25.13,35.32,0,36.34-25.64,51.62-43.81,51.62ZM275.78,331.19c-8.49,0-22.76,23.26-23.6,40.75.17,1.19-.34,7.47-.34,24.79,0,4.92.34,10.19,9.34,10.19,10.53,0,23.6-15.45,23.6-51.28,0-13.42-2.21-24.45-9-24.45Z"/>
        <path class="cls-2" d="M354.58,366.18c.85-7.47.85-13.58.85-14.77-.34-13.08-3.57-24.28-14.77-24.28-4.58,0-8.83.85-14.09,3.57-.34,1.7-.34,3.23-.34,4.92.17,6.79,3.57,14.94,3.91,15.79,0,0-2.38,1.87-8.66,1.87-7.47,0-11.72-4.08-11.89-9.68-.17-11.55,17.83-19.53,33.28-19.53,17.83,0,32.44,7.47,32.77,24.96,0,3.23-.17,7.98-3.4,32.1-.34,2.21-.51,4.92-.34,7.13.17,9.34,3.23,12.57,6.11,13.75,2.89-2.04,4.92-3.91,7.47-7.3.17.17.68.68.85,2.38,0,5.6-6.28,13.92-16.98,13.92-12.57,0-15.45-14.6-15.62-24.45-1.7,10.53-9.68,24.45-23.26,24.45-11.55,0-19.7-12.74-20.04-25.3-.17-15.79,8.83-24.79,27-24.79,9.34,0,14.43,3.06,17.15,5.26ZM354.41,369.23c-4.08-3.74-7.98-4.75-12.23-4.75-7.13,0-13.58,8.15-13.42,16.64.17,8.15,4.42,13.92,11.04,13.92,9.34,0,13.25-13.76,14.6-25.81Z"/>
        <path class="cls-2" d="M419.96,402.35c6.96,0,18-20.72,20.38-32.94,0,0,2.38-15.11,2.38-20.72-.34-13.58-2.89-20.72-2.89-20.72,2.89-2.55,6.96-3.91,10.36-3.91,11.04,0,12.06,3.91,11.38,17.15-.51,9.51-4.58,33.79-4.25,46.87.17,9.34,4.75,12.74,7.64,13.92,2.89-2.04,4.92-3.91,7.47-7.3.17.17.68.68.85,2.38,0,5.6-6.28,14.09-16.98,14.09-12.57,0-15.79-13.92-16.13-23.77.17-7.13.34-8.83.34-8.83-2.38,12.4-12.23,32.6-27.51,32.6-9.34,0-17.15-7.81-17.32-22.08,0-9.51.51-41.77,1.19-54.85-1.7,0-8.15,2.55-11.04,4.92-.34,0-.68-.51-.85-1.53,0-.85.34-2.04,1.36-3.23,6.11-7.13,21.06-10.36,26.32-10.36,2.55,0,4.42,1.53,4.42,3.91.17,1.19-1.87,2.38-3.4,31.92-.68,12.91-2.72,42.45,6.28,42.45Z"/>
        <path class="cls-2" d="M500.45,367.53c.68,23.43,11.72,36.51,21.57,36.51,10.7,0,18-11.04,21.23-23.26,0,0,1.53.17,1.53,2.38.17,11.72-8.66,27.85-30.23,27.85s-35.83-19.19-36.17-40.59c-.51-25.64,13.59-46.36,40.76-46.36,7.81,0,22.75,4.42,23.09,20.04.17,12.4-10.53,25.3-27.68,25.3-3.4,0-8.66-.17-14.09-1.87ZM500.28,364.99c2.04.51,4.08.68,5.94.68,10.36,0,17.32-9.85,17.15-23.6-.17-8.66-1.87-15.11-7.81-15.11-7.13,0-15.28,12.74-15.28,38.04Z"/>
        <path class="cls-2" d="M558.87,393.35c0-3.74,1.36-53.32,1.36-58.42-1.7.17-8.15,2.72-11.04,5.26-.34,0-.68-.51-.85-1.53,0-9.17,23.6-14.6,27.51-14.6,2.55,0,4.42,1.36,4.42,3.74-.85,3.57-1.19,6.62-1.7,11.38-.17,3.06-.68,7.13-1.02,12.23,2.55-11.38,8.32-27.34,22.92-27.34,6.96,0,11.89,4.92,11.89,10.7,0,9.17-8.49,12.57-12.91,14.26,0,.17,0-10.87-7.13-10.87-9.17,0-15.79,20.89-15.45,48.57.17,13.25,4.42,19.87,4.58,19.87,0,0-3.74,4.58-10.19,4.58-11.38,0-12.06-4.75-12.4-17.83Z"/>
        <path class="cls-2" d="M612.54,334.42c6.11-7.13,21.06-10.36,26.32-10.36,2.55,0,4.42,1.53,4.42,3.91,0,1.36-.68,2.55-3.4,31.92,3.4-10.7,12.4-35.83,31.42-35.83,9.34,0,16.81,7.13,16.98,20.89.34,13.42-3.06,24.96-2.89,39.06.17,9.34,3.4,16.64,6.28,17.83,2.89-2.04,4.92-3.91,7.47-7.3.17.17.68.68.85,2.38,0,5.6-7.3,14.09-18,14.09-14.26,0-15.45-17.15-15.62-27-.17-12.4,6.96-51.96-2.04-51.96-10.02,0-24.79,29.38-24.79,54.51.17,13.42,4.58,20.21,4.58,20.21,0,0-3.74,4.42-10.19,4.42-8.66,0-11.72-4.75-12.23-17.83,0-9.51.68-46.02,1.36-59.1-1.7,0-8.15,2.55-11.04,4.92-.34,0-.68-.51-.85-1.53,0-.85.34-2.04,1.36-3.23Z"/>
        <path class="cls-2" d="M700.67,298.25c-.17,0-.51-.51-.51-1.53,0-.85.34-2.04,1.19-3.23,6.45-7.3,21.4-10.87,28.19-10.87,2.55,0,4.08,2.04,4.08,4.42,0,1.19-2.38,44.83-4.92,72.85,3.57-10.7,11.38-35.83,30.4-35.83,9.34,0,16.64,7.13,16.64,20.89s-3.57,24.96-3.57,39.06c0,9.34,3.06,16.64,5.94,17.83,2.89-2.04,4.92-3.91,7.64-7.3.17.17.68.68.68,2.38,0,5.6-7.47,14.09-18.17,14.09-14.26,0-15.11-17.15-15.11-27,0-12.4,7.81-51.96-1.19-51.96-10.02,0-23.6,29.38-23.94,54.51-.17,13.42,4.08,20.21,4.08,20.21,0,0-3.74,4.42-10.19,4.42-8.66,0-12.06-4.75-11.89-17.83l1.87-100.02c-1.7,0-8.15,2.55-11.21,4.92Z"/>
        <path class="cls-2" d="M792.2,368.04c0-30.91,19.7-43.98,38.21-43.98s38.21,13.59,38.21,43.98-19.87,41.94-38.21,41.94-38.21-10.19-38.21-41.94ZM830.41,406.08c10.36,0,18-15.45,18-38.04s-7.3-40.08-18-40.08-17.83,17.66-17.83,40.08,7.3,38.04,17.83,38.04Z"/>
        <path class="cls-2" d="M918.21,285.34c-11.04,0-14.6,14.94-14.6,29.04,0,2.38.17,4.75.34,7.13l2.21,26.66c8.83-.17,16.47-.85,16.47-.85,0,0,.68.51.85,1.53,0,2.21-4.08,4.58-16.98,5.43,3.4,42.79,3.57,46.53,3.57,50.1,0,42.62-26.32,48.06-36,48.06-7.64,0-16.64-4.58-16.64-15.79,0-8.15,5.94-14.6,13.92-14.6,1.7,0,4.25.51,5.94,2.38-5.43,6.96-7.47,14.09-7.47,20.55,0,4.59,4.42,4.42,4.42,4.42,13.25,0,17.32-15.45,17.32-35.15,0-5.43-.68-11.38-1.36-17.32l-5.09-42.79-13.42-.17c-.51-1.02-.68-1.19-.68-2.04,0-1.7,3.23-3.06,13.58-3.57-.85-7.64-1.36-10.02-1.36-12.4,0-28.02,13.08-53.32,38.21-53.32,6.79,0,13.08,3.4,13.08,10.7,0,11.04-6.11,14.09-15.11,14.09,2.04-5.43,2.72-9.34,2.72-13.25,0-2.72-.34-5.43-1.02-8.49-1.02-.17-2.04-.34-2.89-.34Z"/>
    </g>
    <g>
        <path class="cls-2" d="M403.05,496.5c7.3,1.02,29.72,6.45,30.06,28.7.17,12.06,2.89,18.51,4.92,21.57,2.89-2.04,10.53-6.96,10.53-6.96.17.17.68.68.68,2.38,0,5.6-4.92,12.74-15.79,12.74-13.08,0-18.68-9.34-19.02-29.38-.17-5.94-1.36-14.43-9.17-20.55-3.74-2.89-12.91-7.13-19.7-7.3l-5.6-.17v26.32c.17,19.02,8.83,23.77,8.83,23.77,0,0-4.42,7.13-14.6,7.13-8.66,0-12.57-4.42-13.25-17.49-.68-58.59-.68-91.87-1.02-91.87-6.45,2.04-10.53,5.43-10.53,5.43-.17,0-.68-.68-.68-1.53,0-4.42,15.45-15.45,43.64-15.45,24.62,0,41.1,11.38,41.1,28.87,0,19.36-14.43,30.23-30.4,33.79ZM390.82,494.12c12.57,0,22.93-14.77,22.93-32.26,0-11.38-4.92-24.28-21.74-24.28-6.62,0-9.17.68-11.89,1.02-.17,20.72-.17,39.4-.17,54.17,0,0,6.28,1.36,10.87,1.36Z"/>
        <path class="cls-2" d="M480.32,524.51c0,12.57,1.53,20.04,4.75,21.4,2.89-2.04,5.43-4.25,8.15-7.64.17.17.68.68.68,2.38,0,5.6-4.42,14.09-15.28,14.09-13.75,0-15.62-13.08-15.62-22.25,0-22.59,1.02-42.79,1.53-54.51-1.7,0-7.98,2.55-11.04,4.92-.34,0-.68-.51-.68-1.53,0-9.34,22.25-13.59,25.81-13.59,2.55,0,4.58,1.53,4.58,3.91,0,1.19-1.02,7.13-2.38,36.85,0,0-.51,9.51-.51,15.96ZM484.56,446.23c0,7.3-4.08,12.4-11.04,12.4-5.6,0-9.51-5.09-9.51-10.53,0-7.13,4.08-12.4,10.87-12.4,5.6,0,9.68,4.75,9.68,10.53Z"/>
        <path class="cls-2" d="M505.45,527.4c0-11.04.51-23.77.51-29.89v-14.43c0-2.55,0-5.09-.17-6.96-6.45-.17-10.36-.17-12.74-.17h-3.06c-.51-1.02-.68-1.19-.68-2.04,0-1.87,2.55-3.74,16.3-3.91-.68-11.04-1.53-19.19-4.58-23.09,2.89-2.55,5.77-4.08,12.23-4.08,7.98,0,13.25,5.6,13.25,17.32,0,2.04-.17,4.92-.51,10.02,8.83-.17,20.04-.85,20.04-.85,0,0,.68.51.68,1.53,0,2.21-8.83,4.42-21.23,5.26-1.19,16.3-2.89,43.64-2.89,54.34,0,10.02,1.36,17.15,7.81,17.15,6.79,0,11.38-3.74,14.6-15.79,0,0,1.53.17,1.53,2.72,0,10.87-7.64,20.21-21.91,20.21-20.55,0-19.19-17.66-19.19-27.34Z"/>
        <path class="cls-2" d="M554.86,527.4c0-11.04.51-23.77.51-29.89v-14.43c0-2.55,0-5.09-.17-6.96-6.45-.17-10.36-.17-12.74-.17h-3.06c-.51-1.02-.68-1.19-.68-2.04,0-1.87,2.55-3.74,16.3-3.91-.68-11.04-1.53-19.19-4.58-23.09,2.89-2.55,5.77-4.08,12.23-4.08,7.98,0,13.25,5.6,13.25,17.32,0,2.04-.17,4.92-.51,10.02,8.83-.17,20.04-.85,20.04-.85,0,0,.68.51.68,1.53,0,2.21-8.83,4.42-21.23,5.26-1.19,16.3-2.89,43.64-2.89,54.34,0,10.02,1.36,17.15,7.81,17.15,6.79,0,11.38-3.74,14.6-15.79,0,0,1.53.17,1.53,2.72,0,10.87-7.64,20.21-21.91,20.21-20.55,0-19.19-17.66-19.19-27.34Z"/>
    </g>
</svg>
